HIERARCHY
ROOT Hips
{
     OFFSET 1.88212 96.90440 -13.34250
     CHANNELS 6 Xposition Yposition Zposition Zrotation Xrotation Yrotation
     JOINT Spine
     {
          OFFSET 0.00000 11.89050 0.00000
          CHANNELS 3 Zrotation Xrotation Yrotation
          JOINT Spine1
          {
               OFFSET -0.00000 25.65740 0.12766
               CHANNELS 3 Zrotation Xrotation Yrotation
               JOINT HEad
               {
                    OFFSET 0.00000 8.73416 0.01134
                    CHANNELS 3 Zrotation Xrotation Yrotation
                    End Site
                    {
                         OFFSET -0.29000 12.77420 2.51395
                    }
               }
               JOINT LeftShoulder1
               {
                    OFFSET 8.99000 -0.36225 -0.22000
                    CHANNELS 3 Zrotation Xrotation Yrotation
                    JOINT LeftArm
                    {
                         OFFSET 10.28270 -0.00338 0.32212
                         CHANNELS 3 Zrotation Xrotation Yrotation
                         JOINT LeftForeArm
                         {
                              OFFSET 32.76690 0.09914 -1.42434
                              CHANNELS 3 Zrotation Xrotation Yrotation
                              JOINT LeftHand
                              {
                                   OFFSET 27.56430 0.08536 1.02216
                                   CHANNELS 3 Zrotation Xrotation Yrotation
                                   End Site
                                   {
                                        OFFSET 16.74430 -0.60000 1.50291
                                   }
                              }
                         }
                    }
               }
               JOINT RightShoulder
               {
                    OFFSET -8.99000 -0.36225 -0.22000
                    CHANNELS 3 Zrotation Xrotation Yrotation
                    JOINT RightArm
                    {
                         OFFSET -10.28270 -0.00338 0.32212
                         CHANNELS 3 Zrotation Xrotation Yrotation
                         JOINT RightForeArm
                         {
                              OFFSET -32.89710 0.09914 -1.42434
                              CHANNELS 3 Zrotation Xrotation Yrotation
                              JOINT RightHand
                              {
                                   OFFSET -27.49210 0.08536 1.02216
                                   CHANNELS 3 Zrotation Xrotation Yrotation
                                   End Site
                                   {
                                        OFFSET -16.63120 -0.60000 1.50291
                                   }
                              }
                         }
                    }
               }
          }
     }
     JOINT LeftUpLeg
     {
          OFFSET 8.94580 -8.66707 0.10165
          CHANNELS 3 Zrotation Xrotation Yrotation
          JOINT LeftLeg
          {
               OFFSET 0.00000 -44.42270 1.37270
               CHANNELS 3 Zrotation Xrotation Yrotation
               JOINT LeftFoot
               {
                    OFFSET -0.25355 -42.09240 -1.46059
                    CHANNELS 3 Zrotation Xrotation Yrotation
                    JOINT LeftToes
                    {
                         OFFSET -0.04000 -4.41509 8.49910
                         CHANNELS 3 Zrotation Xrotation Yrotation
                         End Site
                         {
                              OFFSET 0.08000 -0.04745 9.77979
                         }
                    }
               }
          }
     }
     JOINT RightUpLeg
     {
          OFFSET -8.94580 -8.66707 0.10165
          CHANNELS 3 Zrotation Xrotation Yrotation
          JOINT RightLeg
          {
               OFFSET 0.00000 -44.42270 1.37270
               CHANNELS 3 Zrotation Xrotation Yrotation
               JOINT RightFoot
               {
                    OFFSET 0.25355 -42.09240 -1.46059
                    CHANNELS 3 Zrotation Xrotation Yrotation
                    JOINT RightToes
                    {
                         OFFSET 0.04000 -4.41509 8.49910
                         CHANNELS 3 Zrotation Xrotation Yrotation
                         End Site
                         {
                              OFFSET -0.08000 -0.13745 9.77979
                         }
                    }
               }
          }
     }
}
MOTION
Frames: 6
Frame Time: 0.01667
-865.03723 85.23026 -212.10884 -29.99257 62.04193 -116.77455 22.10703 50.88520 -18.65004 -0.01775 -0.01918 -0.00518 6.93455 11.70381 -26.57027 -1.50525 2.78185 2.86140 -73.46541 -5.50460 -63.88659 -32.94828 31.13442 -86.74036 14.01247 7.39446 -8.39015 39.42598 1.99429 -6.04563 67.47846 -41.85891 70.57794 6.75365 28.86020 94.01447 15.13672 9.61417 4.56163 42.36596 28.93581 -47.89320 -46.67691 16.49561 75.05118 -24.83465 -0.00384 0.00189 24.90812 -36.99883 -78.77998 -60.06569 -33.05278 -26.19790 117.24590 46.22782 -90.42414 -4.63805 0.02023 -0.06888 -5.06553 59.21891 5.91458 
-865.18591 85.02617 -211.27354 -26.98770 60.41646 -120.23083 21.11411 50.46112 -17.57904 -0.01485 -0.01051 -0.00681 6.94650 10.55120 -26.58551 -2.42288 2.21040 2.65595 -73.09445 -5.47931 -63.59817 -32.27371 31.38135 -87.56917 14.86608 6.84409 -10.08635 38.14094 1.55440 -5.85417 68.47130 -41.43044 70.59767 6.98143 28.71778 94.53841 15.32192 10.42723 4.80896 39.48026 27.16739 -44.67238 -47.32564 17.49958 76.22395 -24.37839 -0.00273 0.00148 24.51570 -37.56300 -78.51252 -56.61668 -31.94844 -29.35405 130.06172 50.03987 -100.85090 -4.28160 0.01134 0.02266 -0.99487 60.80063 0.19240 
-865.35840 84.95244 -210.56271 -22.31244 57.21058 -125.28580 17.74253 47.90565 -14.66468 -0.01045 -0.00138 -0.00810 7.36629 10.20835 -26.79187 -2.91027 2.56119 2.32117 -73.03290 -5.47135 -63.55028 -31.50260 31.66736 -88.24468 14.51824 7.27982 -8.94935 37.25709 1.77436 -6.27407 69.54906 -41.04520 70.97839 7.20960 28.67467 95.05581 15.63496 10.50190 4.44629 35.55970 24.10620 -40.29195 -47.73578 18.43575 77.29794 -23.98718 -0.00188 0.00108 24.09605 -37.81303 -78.25839 -54.05060 -32.76839 -34.51937 144.63440 52.98684 -114.96678 -3.11731 0.00709 0.09969 3.37349 62.53304 -5.21887 
-865.54688 85.03925 -209.95563 -17.10540 52.64333 -130.79094 13.26828 43.46439 -10.97837 -0.00500 0.00775 -0.00904 8.10977 10.53926 -27.13369 -2.92356 3.74738 1.95750 -73.27272 -5.52006 -63.71335 -30.70775 32.00430 -88.81780 14.89896 7.02838 -9.62157 36.83185 2.64915 -7.16277 70.65941 -40.69770 71.64939 7.38239 28.74481 95.61636 15.78416 10.78682 4.32910 31.28097 19.79013 -35.31413 -47.89042 19.23916 78.25159 -23.59868 -0.00125 0.00068 23.66753 -37.73067 -78.02539 -52.12589 -35.53490 -41.20562 157.59509 54.60767 -129.96819 -2.09937 0.02837 0.07139 7.69951 66.41220 -9.84258 
-865.71808 85.24746 -209.40103 -13.52103 48.59306 -134.59421 10.18275 40.72672 -8.90223 -0.00266 0.10600 -0.03600 8.84857 9.81066 -26.92500 -2.64627 3.95571 1.99199 -73.76472 -5.58674 -64.01205 -29.94005 32.46827 -89.31829 14.50438 7.29071 -8.62427 36.64142 2.99958 -7.14405 71.77465 -40.33635 72.50083 7.49277 28.91414 96.25423 15.92090 10.58202 3.87340 27.95971 15.83819 -31.41099 -47.75364 19.83228 79.03889 -23.16238 -0.00059 0.00021 23.24849 -37.30553 -77.81385 -49.32317 -38.56760 -47.50182 169.57906 55.23813 -145.66373 -1.41754 0.05043 0.03793 3.05291 55.20366 -6.15086 
-865.83807 85.52187 -208.84003 -10.87291 45.11337 -137.39612 8.17655 39.47367 -7.98974 0.01205 0.10019 -0.03518 10.01327 9.68622 -26.87807 0.96733 14.29955 -2.34169 -79.15508 -12.23583 -73.76825 -29.13519 33.24780 -90.06749 14.71942 7.16189 -8.80532 36.44792 3.03664 -6.47527 72.88523 -39.95604 73.39931 7.52975 29.15350 96.94569 15.92204 10.51680 3.65720 25.38251 12.34274 -28.32255 -47.31017 20.16788 79.62373 -22.64733 0.00018 -0.00049 22.85052 -36.54889 -77.60658 -45.68961 -41.65207 -53.36965 181.10452 54.96633 -161.94876 -1.14807 0.06504 0.00990 2.86796 51.90422 -5.47474 
